# 3ds Max Wavefront OBJ Exporter v0.97b - (c)2007 guruware
# File Created: 25.03.2015 14:27:43

#
# object Box_3x3x3
#

v  3.0000 0.0000 -0.0000
v  3.0000 0.0000 3.0000
v  0.0000 0.0000 3.0000
v  0.0000 0.0000 -0.0000
v  3.0000 3.0000 -0.0000
v  0.0000 3.0000 -0.0000
v  0.0000 3.0000 3.0000
v  3.0000 3.0000 3.0000
# 8 vertices

vn 0.0000 -1.0000 -0.0000
vn 0.0000 1.0000 -0.0000
vn 0.0000 0.0000 1.0000
vn 1.0000 0.0000 -0.0000
vn 0.0000 0.0000 -1.0000
vn -1.0000 0.0000 -0.0000
# 6 vertex normals

vt 2.2771 -1.3694 0.0000
vt 2.2771 2.0146 0.0000
vt -1.1069 2.0146 0.0000
vt -1.1069 -1.3694 0.0000
vt 2.3945 1.8972 0.0000
vt -0.9895 1.8972 0.0000
vt -0.9895 -1.4868 0.0000
vt 2.3945 -1.4868 0.0000
vt 2.5052 1.7874 0.0000
vt -0.8788 1.7874 0.0000
vt -0.8788 -1.5966 0.0000
vt 2.5052 -1.5966 0.0000
vt 1.8523 2.5873 0.0000
vt -1.5317 2.5873 0.0000
vt -1.5317 -0.7967 0.0000
vt 1.8523 -0.7967 0.0000
vt 2.1817 2.1836 0.0000
vt -1.2024 2.1836 0.0000
vt -1.2024 -1.2004 0.0000
vt 2.1817 -1.2004 0.0000
vt 2.2552 2.1101 0.0000
vt -1.1289 2.1101 0.0000
vt -1.1289 -1.2739 0.0000
vt 2.2552 -1.2739 0.0000
# 24 texture coords

g Box_3x3x3
s 1
f 1/1/1 2/2/1 3/3/1 
f 3/3/1 4/4/1 1/1/1 
f 5/5/2 6/6/2 7/7/2 
f 7/7/2 8/8/2 5/5/2 
s 2
f 8/9/3 7/10/3 3/11/3 
f 3/11/3 2/12/3 8/9/3 
s 4
f 5/13/4 8/14/4 2/15/4 
f 2/15/4 1/16/4 5/13/4 
s 2
f 6/17/5 5/18/5 1/19/5 
f 1/19/5 4/20/5 6/17/5 
s 4
f 7/21/6 6/22/6 4/23/6 
f 4/23/6 3/24/6 7/21/6 
# 12 faces

