# 3ds Max Wavefront OBJ Exporter v0.97b - (c)2007 guruware
# File Created: 25.03.2015 14:27:44

#
# object Box_1x1x1
#

v  1.0000 0.0000 -0.0000
v  1.0000 0.0000 1.0000
v  0.0000 0.0000 1.0000
v  0.0000 0.0000 -0.0000
v  1.0000 1.0000 -0.0000
v  0.0000 1.0000 -0.0000
v  0.0000 1.0000 1.0000
v  1.0000 1.0000 1.0000
# 8 vertices

vn 0.0000 -1.0000 -0.0000
vn 0.0000 1.0000 -0.0000
vn 0.0000 0.0000 1.0000
vn 1.0000 0.0000 -0.0000
vn 0.0000 0.0000 -1.0000
vn -1.0000 0.0000 -0.0000
# 6 vertex normals

vt 1.0613 0.3387 0.0000
vt 1.0613 1.4667 0.0000
vt -0.0667 1.4667 0.0000
vt -0.0667 0.3387 0.0000
vt 1.3792 1.5405 0.0000
vt 0.2511 1.5405 0.0000
vt 0.2511 0.4125 0.0000
vt 1.3792 0.4125 0.0000
vt 1.0317 1.5258 0.0000
vt -0.0963 1.5258 0.0000
vt -0.0963 0.3978 0.0000
vt 1.0317 0.3978 0.0000
vt 1.4679 1.4813 0.0000
vt 0.3399 1.4813 0.0000
vt 0.3399 0.3533 0.0000
vt 1.4679 0.3533 0.0000
vt 1.0613 1.4963 0.0000
vt -0.0667 1.4963 0.0000
vt -0.0667 0.3682 0.0000
vt 1.0613 0.3682 0.0000
vt 1.4087 1.5405 0.0000
vt 0.2807 1.5405 0.0000
vt 0.2807 0.4125 0.0000
vt 1.4087 0.4125 0.0000
# 24 texture coords

g Box_1x1x1
s 1
f 1/1/1 2/2/1 3/3/1 
f 3/3/1 4/4/1 1/1/1 
f 5/5/2 6/6/2 7/7/2 
f 7/7/2 8/8/2 5/5/2 
s 2
f 8/9/3 7/10/3 3/11/3 
f 3/11/3 2/12/3 8/9/3 
s 4
f 5/13/4 8/14/4 2/15/4 
f 2/15/4 1/16/4 5/13/4 
s 2
f 6/17/5 5/18/5 1/19/5 
f 1/19/5 4/20/5 6/17/5 
s 4
f 7/21/6 6/22/6 4/23/6 
f 4/23/6 3/24/6 7/21/6 
# 12 faces

