# 3ds Max Wavefront OBJ Exporter v0.97b - (c)2007 guruware
# File Created: 25.03.2015 14:27:49

#
# object Box_1x3x1
#

v  1.0000 0.0000 -0.0000
v  1.0000 0.0000 3.0000
v  0.0000 0.0000 3.0000
v  0.0000 0.0000 -0.0000
v  1.0000 1.0000 -0.0000
v  0.0000 1.0000 -0.0000
v  0.0000 1.0000 3.0000
v  1.0000 1.0000 3.0000
# 8 vertices

vn 0.0000 -1.0000 -0.0000
vn 0.0000 1.0000 -0.0000
vn 0.0000 0.0000 1.0000
vn 1.0000 0.0000 -0.0000
vn 0.0000 0.0000 -1.0000
vn -1.0000 0.0000 -0.0000
# 6 vertex normals

vt -0.9809 0.1366 0.0000
vt 2.4031 0.1366 0.0000
vt 2.4031 1.2646 0.0000
vt -0.9809 1.2646 0.0000
vt 2.3067 0.1891 0.0000
vt 2.3067 1.3171 0.0000
vt -1.0773 1.3171 0.0000
vt -1.0773 0.1891 0.0000
vt 1.3849 0.7110 0.0000
vt 0.2569 0.7110 0.0000
vt 0.2569 -0.4170 0.0000
vt 1.3849 -0.4170 0.0000
vt -0.8339 -0.0944 0.0000
vt 2.5501 -0.0944 0.0000
vt 2.5501 1.0336 0.0000
vt -0.8339 1.0336 0.0000
vt 1.1863 1.5195 0.0000
vt 0.0583 1.5195 0.0000
vt 0.0583 0.3915 0.0000
vt 1.1863 0.3915 0.0000
vt -0.7528 -0.1679 0.0000
vt 2.6313 -0.1679 0.0000
vt 2.6313 0.9601 0.0000
vt -0.7528 0.9601 0.0000
# 24 texture coords

g Box_1x3x1
s 1
f 1/1/1 2/2/1 3/3/1 
f 3/3/1 4/4/1 1/1/1 
f 5/5/2 6/6/2 7/7/2 
f 7/7/2 8/8/2 5/5/2 
s 2
f 8/9/3 7/10/3 3/11/3 
f 3/11/3 2/12/3 8/9/3 
s 4
f 5/13/4 8/14/4 2/15/4 
f 2/15/4 1/16/4 5/13/4 
s 2
f 6/17/5 5/18/5 1/19/5 
f 1/19/5 4/20/5 6/17/5 
s 4
f 7/21/6 6/22/6 4/23/6 
f 4/23/6 3/24/6 7/21/6 
# 12 faces

