# 3ds Max Wavefront OBJ Exporter v0.97b - (c)2007 guruware
# File Created: 25.03.2015 14:27:50

#
# object Box_5x5x5
#

v  5.0000 0.0000 -0.0000
v  5.0000 0.0000 5.0000
v  0.0000 0.0000 5.0000
v  0.0000 0.0000 -0.0000
v  5.0000 5.0000 -0.0000
v  0.0000 5.0000 -0.0000
v  0.0000 5.0000 5.0000
v  5.0000 5.0000 5.0000
# 8 vertices

vn 0.0000 -1.0000 -0.0000
vn 0.0000 1.0000 -0.0000
vn 0.0000 0.0000 1.0000
vn 1.0000 0.0000 -0.0000
vn 0.0000 0.0000 -1.0000
vn -1.0000 0.0000 -0.0000
# 6 vertex normals

vt 3.5378 -2.7551 0.0000
vt 3.5378 2.8849 0.0000
vt -2.1022 2.8849 0.0000
vt -2.1022 -2.7551 0.0000
vt 2.8849 3.6113 0.0000
vt -2.7551 3.6113 0.0000
vt -2.7551 -2.0287 0.0000
vt 2.8849 -2.0287 0.0000
vt 3.0023 3.4939 0.0000
vt -2.6377 3.4939 0.0000
vt -2.6377 -2.1461 0.0000
vt 3.0023 -2.1461 0.0000
vt 3.3316 3.0472 0.0000
vt -2.3084 3.0472 0.0000
vt -2.3084 -2.5929 0.0000
vt 3.3316 -2.5929 0.0000
vt 3.0911 3.3316 0.0000
vt -2.5490 3.3316 0.0000
vt -2.5490 -2.3084 0.0000
vt 3.0911 -2.3084 0.0000
vt 2.8849 3.4939 0.0000
vt -2.7551 3.4939 0.0000
vt -2.7551 -2.1461 0.0000
vt 2.8849 -2.1461 0.0000
# 24 texture coords

g Box_5x5x5
s 1
f 1/1/1 2/2/1 3/3/1 
f 3/3/1 4/4/1 1/1/1 
f 5/5/2 6/6/2 7/7/2 
f 7/7/2 8/8/2 5/5/2 
s 2
f 8/9/3 7/10/3 3/11/3 
f 3/11/3 2/12/3 8/9/3 
s 4
f 5/13/4 8/14/4 2/15/4 
f 2/15/4 1/16/4 5/13/4 
s 2
f 6/17/5 5/18/5 1/19/5 
f 1/19/5 4/20/5 6/17/5 
s 4
f 7/21/6 6/22/6 4/23/6 
f 4/23/6 3/24/6 7/21/6 
# 12 faces

