# 3ds Max Wavefront OBJ Exporter v0.97b - (c)2007 guruware
# File Created: 25.03.2015 14:27:48

#
# object Triangle_01
#

v  0.0000 0.0000 1.0000
v  0.0000 0.0000 -0.0000
v  1.0000 0.0000 -0.0000
v  1.0000 0.0000 1.0000
v  2.0000 0.0000 -0.0000
v  2.0000 0.0000 1.0000
v  3.0000 0.0000 -0.0000
v  3.0000 0.0000 1.0000
v  0.0000 1.0000 1.0000
v  1.0000 1.0000 1.0000
v  1.0000 1.0000 -0.0000
v  0.0000 1.0000 -0.0000
v  1.0000 2.0000 1.0000
v  2.0000 2.0000 1.0000
v  2.0000 2.0000 -0.0000
v  1.0000 2.0000 -0.0000
v  2.0000 1.0000 1.0000
v  3.0000 1.0000 1.0000
v  3.0000 1.0000 -0.0000
v  2.0000 1.0000 -0.0000
# 20 vertices

vn 0.0000 -1.0000 -0.0000
vn 0.0000 1.0000 -0.0000
vn 0.0000 0.0000 1.0000
vn 1.0000 0.0000 -0.0000
vn 0.0000 0.0000 -1.0000
vn -1.0000 0.0000 -0.0000
# 6 vertex normals

vt 1.9803 0.3332 0.0000
vt 1.9803 1.4612 0.0000
vt 0.8523 1.4612 0.0000
vt 0.8523 0.3332 0.0000
vt -0.2757 1.4612 0.0000
vt -0.2757 0.3332 0.0000
vt -1.4037 1.4612 0.0000
vt -1.4037 0.3332 0.0000
vt 0.1216 -0.0640 0.0000
vt 1.2496 -0.0640 0.0000
vt 1.2496 1.0640 0.0000
vt 0.1216 1.0640 0.0000
vt 0.3158 -0.0640 0.0000
vt 1.4438 -0.0640 0.0000
vt 1.4438 1.0640 0.0000
vt 0.3158 1.0640 0.0000
vt 0.3158 -0.2670 0.0000
vt 1.4438 -0.2670 0.0000
vt 1.4438 0.8610 0.0000
vt 0.3158 0.8610 0.0000
vt 1.9803 1.1351 0.0000
vt 0.8523 1.1351 0.0000
vt 0.8523 0.0071 0.0000
vt 1.9803 0.0071 0.0000
vt -0.2757 1.1351 0.0000
vt -0.2757 0.0071 0.0000
vt -1.4037 1.1351 0.0000
vt -1.4037 0.0071 0.0000
vt 0.1216 -0.2670 0.0000
vt 1.2496 -0.2670 0.0000
vt 1.2496 0.8610 0.0000
vt 0.1216 0.8610 0.0000
vt 1.9803 1.5323 0.0000
vt 0.8523 1.5323 0.0000
vt 0.8523 0.4043 0.0000
vt 1.9803 0.4043 0.0000
vt -0.2757 1.5323 0.0000
vt -0.2757 0.4043 0.0000
vt -1.4037 1.5323 0.0000
vt -1.4037 0.4043 0.0000
vt 0.1216 -0.4612 0.0000
vt 1.2496 -0.4612 0.0000
vt 1.2496 0.6668 0.0000
vt 0.1216 0.6668 0.0000
vt 0.1216 0.1303 0.0000
vt 1.2496 0.1303 0.0000
vt 1.2496 1.2583 0.0000
vt 0.1216 1.2583 0.0000
vt -0.2757 -1.1209 0.0000
vt 0.8523 -1.1209 0.0000
vt 0.3158 -0.4612 0.0000
vt 1.4438 -0.4612 0.0000
vt 1.4438 0.6668 0.0000
vt 0.3158 0.6668 0.0000
vt -0.2757 -0.7237 0.0000
vt 0.8523 -0.7237 0.0000
# 56 texture coords

g Triangle_01
s 1
f 1/1/1 2/2/1 3/3/1 
f 3/3/1 4/4/1 1/1/1 
f 4/4/1 3/3/1 5/5/1 
f 5/5/1 6/6/1 4/4/1 
f 6/6/1 5/5/1 7/7/1 
f 7/7/1 8/8/1 6/6/1 
f 9/9/2 10/10/2 11/11/2 
f 11/11/2 12/12/2 9/9/2 
f 13/13/2 14/14/2 15/15/2 
f 15/15/2 16/16/2 13/13/2 
f 17/17/2 18/18/2 19/19/2 
f 19/19/2 20/20/2 17/17/2 
s 2
f 1/21/3 4/22/3 10/23/3 
f 10/23/3 9/24/3 1/21/3 
f 4/22/3 6/25/3 17/26/3 
f 17/26/3 10/23/3 4/22/3 
f 6/25/3 8/27/3 18/28/3 
f 18/28/3 17/26/3 6/25/3 
s 4
f 8/29/4 7/30/4 19/31/4 
f 19/31/4 18/32/4 8/29/4 
s 2
f 7/33/5 5/34/5 20/35/5 
f 20/35/5 19/36/5 7/33/5 
f 5/34/5 3/37/5 11/38/5 
f 11/38/5 20/35/5 5/34/5 
f 3/37/5 2/39/5 12/40/5 
f 12/40/5 11/38/5 3/37/5 
s 4
f 2/41/6 1/42/6 9/43/6 
f 9/43/6 12/44/6 2/41/6 
f 11/45/6 10/46/6 13/47/6 
f 13/47/6 16/48/6 11/45/6 
s 2
f 10/23/3 17/26/3 14/49/3 
f 14/49/3 13/50/3 10/23/3 
s 4
f 17/51/4 20/52/4 15/53/4 
f 15/53/4 14/54/4 17/51/4 
s 2
f 20/35/5 11/38/5 16/55/5 
f 16/55/5 15/56/5 20/35/5 
# 36 faces

