# 3ds Max Wavefront OBJ Exporter v0.97b - (c)2007 guruware
# File Created: 25.03.2015 14:27:48

#
# object Box_4x4x1
#

v  4.0000 0.0000 -0.0000
v  4.0000 0.0000 4.0000
v  0.0000 0.0000 4.0000
v  0.0000 0.0000 -0.0000
v  4.0000 1.0000 -0.0000
v  0.0000 1.0000 -0.0000
v  0.0000 1.0000 4.0000
v  4.0000 1.0000 4.0000
# 8 vertices

vn 0.0000 -1.0000 -0.0000
vn 0.0000 1.0000 -0.0000
vn 0.0000 0.0000 1.0000
vn 1.0000 0.0000 -0.0000
vn 0.0000 0.0000 -1.0000
vn -1.0000 0.0000 -0.0000
# 6 vertex normals

vt 2.8741 -2.0398 0.0000
vt 2.8741 2.4722 0.0000
vt -1.6380 2.4722 0.0000
vt -1.6380 -2.0398 0.0000
vt 2.7566 2.5896 0.0000
vt -1.7554 2.5896 0.0000
vt -1.7554 -1.9224 0.0000
vt 2.7566 -1.9224 0.0000
vt -1.5492 -0.4256 0.0000
vt 2.9628 -0.4256 0.0000
vt 2.9628 0.7024 0.0000
vt -1.5492 0.7024 0.0000
vt -1.8785 0.1834 0.0000
vt 2.6335 0.1834 0.0000
vt 2.6335 1.3114 0.0000
vt -1.8785 1.3114 0.0000
vt -1.9959 0.0211 0.0000
vt 2.5161 0.0211 0.0000
vt 2.5161 1.1491 0.0000
vt -1.9959 1.1491 0.0000
vt -1.8785 0.0057 0.0000
vt 2.6335 0.0057 0.0000
vt 2.6335 1.1337 0.0000
vt -1.8785 1.1337 0.0000
# 24 texture coords

g Box_4x4x1
s 1
f 1/1/1 2/2/1 3/3/1 
f 3/3/1 4/4/1 1/1/1 
f 5/5/2 6/6/2 7/7/2 
f 7/7/2 8/8/2 5/5/2 
s 2
f 8/9/3 7/10/3 3/11/3 
f 3/11/3 2/12/3 8/9/3 
s 4
f 5/13/4 8/14/4 2/15/4 
f 2/15/4 1/16/4 5/13/4 
s 2
f 6/17/5 5/18/5 1/19/5 
f 1/19/5 4/20/5 6/17/5 
s 4
f 7/21/6 6/22/6 4/23/6 
f 4/23/6 3/24/6 7/21/6 
# 12 faces

