# 3ds Max Wavefront OBJ Exporter v0.97b - (c)2007 guruware
# File Created: 25.03.2015 14:27:40

#
# object Plane_20x20
#

v  0.0000 0.0000 20.0000
v  5.0000 0.0000 20.0000
v  5.0000 0.0000 15.0000
v  0.0000 0.0000 15.0000
v  10.0000 0.0000 20.0000
v  10.0000 0.0000 15.0000
v  15.0000 0.0000 20.0000
v  15.0000 0.0000 15.0000
v  20.0000 0.0000 20.0000
v  20.0000 0.0000 15.0000
v  5.0000 0.0000 10.0000
v  0.0000 0.0000 10.0000
v  10.0000 0.0000 10.0000
v  15.0000 0.0000 10.0000
v  20.0000 0.0000 10.0000
v  5.0000 0.0000 5.0000
v  0.0000 0.0000 5.0000
v  10.0000 0.0000 5.0000
v  15.0000 0.0000 5.0000
v  20.0000 0.0000 5.0000
v  5.0000 0.0000 -0.0000
v  0.0000 0.0000 -0.0000
v  10.0000 0.0000 -0.0000
v  15.0000 0.0000 -0.0000
v  20.0000 0.0000 -0.0000
# 25 vertices

vn 0.0000 1.0000 -0.0000
# 1 vertex normals

vt -11.0505 -11.0505 0.0000
vt -5.4105 -11.0505 0.0000
vt -5.4105 -5.4105 0.0000
vt -11.0505 -5.4105 0.0000
vt 0.2295 -11.0505 0.0000
vt 0.2295 -5.4105 0.0000
vt 5.8696 -11.0505 0.0000
vt 5.8696 -5.4105 0.0000
vt 11.5096 -11.0505 0.0000
vt 11.5096 -5.4105 0.0000
vt -5.4105 0.2295 0.0000
vt -11.0505 0.2295 0.0000
vt 0.2295 0.2295 0.0000
vt 5.8696 0.2295 0.0000
vt 11.5096 0.2295 0.0000
vt -5.4105 5.8696 0.0000
vt -11.0505 5.8696 0.0000
vt 0.2295 5.8696 0.0000
vt 5.8696 5.8696 0.0000
vt 11.5096 5.8696 0.0000
vt -5.4105 11.5096 0.0000
vt -11.0505 11.5096 0.0000
vt 0.2295 11.5096 0.0000
vt 5.8696 11.5096 0.0000
vt 11.5096 11.5096 0.0000
# 25 texture coords

g Plane_20x20
s 1
f 1/1/1 2/2/1 3/3/1 
f 3/3/1 4/4/1 1/1/1 
f 2/2/1 5/5/1 6/6/1 
f 6/6/1 3/3/1 2/2/1 
f 5/5/1 7/7/1 8/8/1 
f 8/8/1 6/6/1 5/5/1 
f 7/7/1 9/9/1 10/10/1 
f 10/10/1 8/8/1 7/7/1 
f 4/4/1 3/3/1 11/11/1 
f 11/11/1 12/12/1 4/4/1 
f 3/3/1 6/6/1 13/13/1 
f 13/13/1 11/11/1 3/3/1 
f 6/6/1 8/8/1 14/14/1 
f 14/14/1 13/13/1 6/6/1 
f 8/8/1 10/10/1 15/15/1 
f 15/15/1 14/14/1 8/8/1 
f 12/12/1 11/11/1 16/16/1 
f 16/16/1 17/17/1 12/12/1 
f 11/11/1 13/13/1 18/18/1 
f 18/18/1 16/16/1 11/11/1 
f 13/13/1 14/14/1 19/19/1 
f 19/19/1 18/18/1 13/13/1 
f 14/14/1 15/15/1 20/20/1 
f 20/20/1 19/19/1 14/14/1 
f 17/17/1 16/16/1 21/21/1 
f 21/21/1 22/22/1 17/17/1 
f 16/16/1 18/18/1 23/23/1 
f 23/23/1 21/21/1 16/16/1 
f 18/18/1 19/19/1 24/24/1 
f 24/24/1 23/23/1 18/18/1 
f 19/19/1 20/20/1 25/25/1 
f 25/25/1 24/24/1 19/19/1 
# 32 faces

