# 3ds Max Wavefront OBJ Exporter v0.97b - (c)2007 guruware
# File Created: 25.03.2015 14:27:44

#
# object Box_2x2x2
#

v  2.0000 0.0000 -0.0000
v  2.0000 0.0000 2.0000
v  0.0000 0.0000 2.0000
v  0.0000 0.0000 -0.0000
v  2.0000 2.0000 -0.0000
v  0.0000 2.0000 -0.0000
v  0.0000 2.0000 2.0000
v  2.0000 2.0000 2.0000
# 8 vertices

vn 0.0000 -1.0000 -0.0000
vn 0.0000 1.0000 -0.0000
vn 0.0000 0.0000 1.0000
vn 1.0000 0.0000 -0.0000
vn 0.0000 0.0000 -1.0000
vn -1.0000 0.0000 -0.0000
# 6 vertex normals

vt 1.9236 -0.6474 0.0000
vt 1.9236 1.6086 0.0000
vt -0.3324 1.6086 0.0000
vt -0.3324 -0.6474 0.0000
vt 2.0047 1.5351 0.0000
vt -0.2513 1.5351 0.0000
vt -0.2513 -0.7209 0.0000
vt 2.0047 -0.7209 0.0000
vt 1.5418 1.8205 0.0000
vt -0.7142 1.8205 0.0000
vt -0.7142 -0.4355 0.0000
vt 1.5418 -0.4355 0.0000
vt 1.6067 1.7524 0.0000
vt -0.6493 1.7524 0.0000
vt -0.6493 -0.5036 0.0000
vt 1.6067 -0.5036 0.0000
vt 1.5208 2.0133 0.0000
vt -0.7352 2.0133 0.0000
vt -0.7352 -0.2427 0.0000
vt 1.5208 -0.2427 0.0000
vt 1.3509 2.0124 0.0000
vt -0.9051 2.0124 0.0000
vt -0.9051 -0.2437 0.0000
vt 1.3509 -0.2437 0.0000
# 24 texture coords

g Box_2x2x2
s 1
f 1/1/1 2/2/1 3/3/1 
f 3/3/1 4/4/1 1/1/1 
f 5/5/2 6/6/2 7/7/2 
f 7/7/2 8/8/2 5/5/2 
s 2
f 8/9/3 7/10/3 3/11/3 
f 3/11/3 2/12/3 8/9/3 
s 4
f 5/13/4 8/14/4 2/15/4 
f 2/15/4 1/16/4 5/13/4 
s 2
f 6/17/5 5/18/5 1/19/5 
f 1/19/5 4/20/5 6/17/5 
s 4
f 7/21/6 6/22/6 4/23/6 
f 4/23/6 3/24/6 7/21/6 
# 12 faces

